HIERARCHY
ROOT Hips
{
  OFFSET 1.03514 100.887 51.4643
  CHANNELS 6 Xposition Yposition Zposition Zrotation Xrotation Yrotation
  JOINT RightUpLeg
  {
    OFFSET -8.9458 -8.66707 0.101652
    CHANNELS 3 Zrotation Xrotation Yrotation
    JOINT RightLeg
    {
      OFFSET 0 -44.4227 1.3727
      CHANNELS 3 Zrotation Xrotation Yrotation
      JOINT RightFoot
      {
        OFFSET 0.253549 -42.0924 -1.46059
        CHANNELS 3 Zrotation Xrotation Yrotation
        JOINT RightToes
        {
          OFFSET 0.04 -4.41509 8.4991
          CHANNELS 3 Zrotation Xrotation Yrotation
          End Site
          {
            OFFSET -0.08 -0.137448 9.77979
          }
        }
      }
    }
  }
  JOINT Spine
  {
    OFFSET 0 11.8905 0
    CHANNELS 3 Zrotation Xrotation Yrotation
    JOINT Spine1
    {
      OFFSET 0 25.6574 0.127663
      CHANNELS 3 Zrotation Xrotation Yrotation
      JOINT HEad
      {
        OFFSET 0 8.73416 0.011341
        CHANNELS 3 Zrotation Xrotation Yrotation
        End Site
        {
          OFFSET -0.29 12.7742 2.51395
        }
      }
      JOINT LeftShoulder1
      {
        OFFSET 8.99 -0.362252 -0.22
        CHANNELS 3 Zrotation Xrotation Yrotation
        JOINT LeftArm
        {
          OFFSET 10.2827 -0.00338 0.322123
          CHANNELS 3 Zrotation Xrotation Yrotation
          JOINT LeftForeArm
          {
            OFFSET 32.7669 0.099144 -1.42434
            CHANNELS 3 Zrotation Xrotation Yrotation
            JOINT LeftHand
            {
              OFFSET 27.5643 0.085362 1.02216
              CHANNELS 3 Zrotation Xrotation Yrotation
              End Site
              {
                OFFSET 16.7443 -0.6 1.50291
              }
            }
          }
        }
      }
      JOINT RightShoulder
      {
        OFFSET -8.99 -0.362252 -0.22
        CHANNELS 3 Zrotation Xrotation Yrotation
        JOINT RightArm
        {
          OFFSET -10.2827 -0.00338 0.322123
          CHANNELS 3 Zrotation Xrotation Yrotation
          JOINT RightForeArm
          {
            OFFSET -32.8971 0.099144 -1.42434
            CHANNELS 3 Zrotation Xrotation Yrotation
            JOINT RightHand
            {
              OFFSET -27.4921 0.085362 1.02216
              CHANNELS 3 Zrotation Xrotation Yrotation
              End Site
              {
                OFFSET -16.6312 -0.6 1.50291
              }
            }
          }
        }
      }
    }
  }
  JOINT LeftUpLeg
  {
    OFFSET 8.9458 -8.66707 0.101652
    CHANNELS 3 Zrotation Xrotation Yrotation
    JOINT LeftLeg
    {
      OFFSET 0 -44.4227 1.3727
      CHANNELS 3 Zrotation Xrotation Yrotation
      JOINT LeftFoot
      {
        OFFSET -0.253549 -42.0924 -1.46059
        CHANNELS 3 Zrotation Xrotation Yrotation
        JOINT LeftToes
        {
          OFFSET -0.04 -4.41509 8.4991
          CHANNELS 3 Zrotation Xrotation Yrotation
          End Site
          {
            OFFSET 0.08 -0.047448 9.77979
          }
        }
      }
    }
  }
}
MOTION
Frames:	7
Frame Time:	0.0166667
2.79305 101.432 74.1341 -0.223292 -1.80935 1.79483 -0.0525466 2.91784 1.12158 9.65914 38.2368 -23.9442 1.49907 -4.6004 -0.206012 -1.73477 -8.6195 10.5779 3.9961 3.1552 -1.05172 -4.15697 3.25958 0.274829 3.36105 -2.54243 -4.13524 1.36664e-016 -1.59028e-015 -0 -86.2872 -43.4866 -7.42237 -16.6069 12.9027 -4.32188 0.368473 9.90896 -0.00117926 -3.3697 0.404534 3.85014 90.8003 -28.9771 11.9395 18.4201 16.0156 23.4032 -0.369625 9.91382 0.00119887 -2.96065 -15.591 -1.36594 -2.64465 16.4305 18.3728 -14.6235 -5.50065 -0.26058 -7.89743 -6.26675 12.2607 
2.99309 101.555 75.5682 0.351023 -1.69855 1.84989 -1.25343 1.37236 0.0869677 9.70623 41.5826 -23.8629 1.74161 -1.75974 -0.228677 -5.11295 -5.80623 15.1679 3.6215 3.25674 -1.20933 -5.16401 3.02525 0.315677 3.84715 -2.46054 -4.24476 -1.98785e-016 1.59028e-015 -1.98785e-016 -86.0521 -42.7644 -8.04185 -16.7357 12.9613 -4.75155 0.368473 9.90896 -0.00117926 -2.96055 0.420287 3.6698 90.5512 -29.3007 10.7572 18.5965 15.9179 22.7306 -0.369625 9.91382 0.00119887 -3.69107 -14.598 -1.32717 -2.71323 16.1248 17.8125 -14.5147 -6.09648 -0.334584 -8.33916 -6.77874 12.9249 
3.18854 101.566 76.9207 0.870905 -1.63139 1.82287 -2.24598 -0.542616 -1.53718 8.80352 45.7079 -21.7977 1.61725 0.872991 -0.240992 -8.12796 -1.68079 17.6785 3.03312 3.40459 -1.27882 -5.85988 3.11516 0.357387 4.12055 -2.60665 -4.30675 4.84538e-016 0 -0 -86.1944 -41.7403 -9.04676 -16.847 13.0321 -5.25448 0.368473 9.90896 -0.00117926 -2.87576 0.399544 3.21825 90.5541 -29.3055 9.91239 18.8055 15.8065 21.9704 -0.369625 9.91382 0.00119887 -4.28014 -13.9053 -2.15828 -3.14149 16.3583 18.4201 -14.5267 -6.92256 -0.436156 -8.5919 -7.52425 12.8978 
3.37125 101.536 78.2121 1.30473 -1.53584 1.73082 -3.09873 -2.73647 -2.90473 7.43466 49.9926 -19.624 1.34088 2.95268 -0.245446 -9.95973 2.00682 18.0856 2.45361 3.54094 -1.31368 -6.39234 3.30188 0.395055 4.26873 -2.88268 -4.31892 -6.21202e-016 0 -3.97569e-016 -86.3991 -40.4915 -10.1842 -17.0203 13.1154 -5.83194 0.368473 9.90896 -0.00117926 -2.81353 0.37079 2.6908 90.579 -29.175 9.31232 19.0225 15.6723 21.0808 -0.369625 9.91382 0.00119887 -4.72234 -13.3854 -2.96126 -3.62311 16.7921 19.1825 -14.6268 -7.84159 -0.553227 -8.77462 -8.31671 12.6316 
3.52747 101.516 79.4611 1.59652 -1.33149 1.58481 -3.5543 -5.13036 -3.10557 6.8928 53.9033 -19.819 1.15241 3.81639 -0.238809 -8.73636 3.56409 14.731 2.10383 3.60172 -1.35828 -6.86891 3.36628 0.425792 4.34164 -3.22461 -4.25096 1.20513e-015 -1.59028e-015 1.98785e-016 -86.3453 -39.0116 -11.1932 -17.3777 13.225 -6.5643 0.368473 9.90896 -0.00117926 -2.4508 0.361902 2.24424 90.3403 -29.0321 8.88824 19.253 15.5095 20.033 -0.369625 9.91382 0.00119887 -5.0035 -13.0362 -2.90318 -3.88295 17.2979 19.2235 -14.8726 -8.78815 -0.686422 -8.93094 -9.00785 12.3806 
3.66109 101.507 80.6673 1.77522 -1.06171 1.41857 -3.8019 -7.66434 -2.57681 7.36817 57.2869 -21.5767 0.801823 4.01054 -0.218182 -6.40535 4.05669 10.3963 1.88635 3.63308 -1.39567 -7.24186 3.37741 0.448564 4.34138 -3.57974 -4.16829 -7.45443e-017 1.59028e-015 -9.93923e-017 -86.2668 -37.4579 -12.3011 -17.742 13.3157 -7.16371 0.368473 9.90896 -0.00117926 -1.96693 0.358689 1.82873 90.0139 -28.9439 8.58726 19.441 15.33 18.9193 -0.369625 9.91382 0.00119887 -5.16021 -12.758 -2.47901 -4.02132 17.766 18.9503 -15.0867 -9.6865 -0.814071 -9.04599 -9.65285 12.0514 
3.76358 101.536 81.8355 1.82216 -0.701626 1.28346 -4.00271 -10.3029 -1.22319 9.53817 59.7055 -25.2872 -0.073811 3.97393 -0.167575 -4.9298 4.02177 7.76722 1.83077 3.66288 -1.43227 -7.51663 3.24953 0.457254 4.30613 -3.8413 -4.15799 1.21756e-015 7.95139e-016 1.98785e-016 -86.2577 -36.0056 -13.6463 -17.9518 13.334 -7.25704 0.368473 9.90896 -0.00117926 -1.33669 0.359984 1.4544 89.5899 -29.0413 8.29822 19.55 15.1445 17.8037 -0.369625 9.91382 0.00119887 -5.17829 -12.456 -1.81854 -4.01861 17.9731 18.3823 -15.0408 -10.3982 -0.905702 -9.05349 -10.1956 11.5254 
